<svg width="60" height="82" viewBox="55 65 72 110" fill="none" xmlns="http://www.w3.org/2000/svg">
  <path d="M87.6992 84.4341C86.8766 84.997 85.7238 84.9891 85.0734 84.2337C84.5145 83.5845 84.524 82.6073 85.1793 82.0555C85.9636 81.3951 86.8145 80.8547 87.7322 80.4344C89.0921 79.8115 90.5146 79.5 92 79.5C93.4854 79.5 94.9079 79.8115 96.2678 80.4344C97.1855 80.8547 98.0364 81.3951 98.8207 82.0555C99.476 82.6073 99.4855 83.5845 98.9266 84.2337C98.2762 84.9891 97.1234 84.997 96.3008 84.4341C95.9045 84.1629 95.4908 83.9318 95.0596 83.7406C94.0868 83.3094 93.0669 83.0937 92 83.0937C90.9331 83.0937 89.9132 83.3094 88.9404 83.7406C88.5092 83.9318 88.0955 84.1629 87.6992 84.4341ZM80.5636 76.1465C79.8186 76.8255 78.6457 76.8206 77.9827 76.0614C77.422 75.4192 77.4247 74.4539 78.0342 73.8578C79.8032 72.1275 81.7649 70.7678 83.9195 69.7789C86.5031 68.593 89.1967 68 92 68C94.8033 68 97.4969 68.593 100.081 69.7789C102.235 70.7678 104.197 72.1275 105.966 73.8578C106.575 74.4539 106.578 75.4192 106.017 76.0614C105.354 76.8206 104.181 76.8255 103.436 76.1465C102.061 74.8925 100.55 73.8841 98.9038 73.1211C96.7071 72.1029 94.4059 71.5937 92 71.5937C89.5941 71.5937 87.2929 72.1029 85.0962 73.1211C83.4503 73.8841 81.9394 74.8925 80.5636 76.1465ZM84.1334 80.2824C83.3649 80.9266 82.1994 80.9169 81.5452 80.1569C80.9927 79.5152 80.9997 78.5549 81.619 77.9773C82.9012 76.7816 84.3113 75.8277 85.8494 75.1156C87.8159 74.2052 89.8766 73.75 92.0314 73.75C94.1862 73.75 96.2416 74.1992 98.1977 75.0977C99.7273 75.8002 101.132 76.7482 102.412 77.9415C103.032 78.5189 103.039 79.4792 102.486 80.121C101.832 80.8809 100.666 80.8904 99.8953 80.2494C98.9954 79.5016 98.0216 78.8924 96.9738 78.4219C95.3734 77.7031 93.7155 77.3437 92 77.3437C90.2636 77.3437 88.6056 77.7091 87.0262 78.4398C85.9925 78.9181 85.0282 79.5322 84.1334 80.2824ZM92 91C91.3096 91 90.7186 90.7185 90.227 90.1555C89.7354 89.5924 89.4895 88.9156 89.4895 88.125C89.4895 87.3344 89.7354 86.6576 90.227 86.0945C90.7186 85.5315 91.3096 85.25 92 85.25C92.6904 85.25 93.2814 85.5315 93.773 86.0945C94.2646 86.6576 94.5105 87.3344 94.5105 88.125C94.5105 88.9156 94.2646 89.5924 93.773 90.1555C93.2814 90.7185 92.6904 91 92 91Z" fill="#FFF"/>
  
  <path d="M78.2377 113.31C72.1916 113.584 66.9214 115.088 66.3556 117.691C66.0161 118.936 65.9029 130.706 66.0161 143.833L66.3556 167.599L70.4296 167.938C73.8247 168.164 74.6169 167.825 75.1827 166.014C75.7486 163.751 76.5407 163.638 91.8185 163.638C107.096 163.638 107.888 163.751 108.454 166.014C109.02 167.825 109.812 168.164 113.207 167.938L117.281 167.599L117.621 143.833C117.734 130.706 117.621 119.049 117.395 117.691C117.055 116.446 114.792 114.926 113.094 114.134C109.925 112.663 85.82 112.404 78.2377 113.31ZM107.436 117.465C106.757 119.502 76.8802 119.502 76.3144 117.465C75.8617 116.446 79.4831 116.107 91.8185 116.107C104.154 116.107 107.775 116.446 107.436 117.465ZM113.094 135.006L113.434 145.417L109.133 146.323C103.588 147.455 80.049 147.455 74.6169 146.323L70.3165 145.417V135.459C70.3165 130.027 70.656 125.16 71.1087 124.708C71.5613 124.368 81.0675 124.142 92.2712 124.255L112.755 124.594L113.094 135.006ZM80.1621 153.905C80.3885 154.131 80.2753 155.15 79.8226 156.168C79.37 157.413 77.7856 157.979 74.73 157.979C70.7691 157.979 70.3165 157.753 70.3165 155.037C70.3165 152.094 70.5428 152.094 75.0696 152.773C77.6724 153.226 80.049 153.679 80.1621 153.905ZM113.321 155.15C113.321 157.64 112.868 157.979 108.907 157.979C105.965 157.979 104.267 157.413 103.814 156.168C102.796 153.679 102.796 153.679 106.304 153.113C112.981 152.094 113.321 152.208 113.321 155.15Z" fill="#FFF"/>
  
  <path d="M59 128.442C59 130.932 59.679 133.422 60.6975 134.214C63.1872 136.364 63.7531 135.119 62.9609 129.234C61.9424 122.557 59 121.992 59 128.442Z" fill="#FFF"/>
  <path d="M120.676 129.234C119.884 135.119 120.45 136.364 122.94 134.214C125.203 132.403 125.316 124.029 123.053 124.029C122.034 124.029 121.242 125.952 120.676 129.234Z" fill="#FFF"/>
  
  <path d="M100.273 108.143H94.9333C95.8302 107.282 96.676 106.361 97.4659 105.386C100.429 101.722 102 97.8589 102 94.2143C102 91.5053 100.999 88.9072 99.2175 86.9917C97.4359 85.0761 95.0196 84 92.5 84C89.9804 84 87.5641 85.0761 85.7825 86.9917C84.0009 88.9072 83 91.5053 83 94.2143C83 97.8589 84.5664 101.722 87.5341 105.386C88.324 106.361 89.1698 107.282 90.0667 108.143H84.7273C84.4982 108.143 84.2786 108.241 84.1166 108.415C83.9546 108.589 83.8636 108.825 83.8636 109.071C83.8636 109.318 83.9546 109.554 84.1166 109.728C84.2786 109.902 84.4982 110 84.7273 110H100.273C100.502 110 100.721 109.902 100.883 109.728C101.045 109.554 101.136 109.318 101.136 109.071C101.136 108.825 101.045 108.589 100.883 108.415C100.721 108.241 100.502 108.143 100.273 108.143ZM92.5 90.5C93.1832 90.5 93.8511 90.7178 94.4192 91.126C94.9873 91.5341 95.4301 92.1142 95.6916 92.7929C95.9531 93.4716 96.0215 94.2184 95.8882 94.9389C95.7549 95.6594 95.4259 96.3212 94.9427 96.8407C94.4596 97.3601 93.8441 97.7139 93.1739 97.8572C92.5038 98.0005 91.8092 97.927 91.178 97.6458C90.5468 97.3647 90.0072 96.8886 89.6277 96.2778C89.2481 95.667 89.0455 94.9489 89.0455 94.2143C89.0455 93.2292 89.4094 92.2845 90.0573 91.5879C90.7051 90.8913 91.5838 90.5 92.5 90.5Z" fill="#FFF"/>
</svg>