<svg width="439" height="195" viewBox="0 0 439 195" fill="none" xmlns="http://www.w3.org/2000/svg">
<path d="M87.6992 84.4341C86.8766 84.997 85.7238 84.9891 85.0734 84.2337C84.5145 83.5845 84.524 82.6073 85.1793 82.0555C85.9636 81.3951 86.8145 80.8547 87.7322 80.4344C89.0921 79.8115 90.5146 79.5 92 79.5C93.4854 79.5 94.9079 79.8115 96.2678 80.4344C97.1855 80.8547 98.0364 81.3951 98.8207 82.0555C99.476 82.6073 99.4855 83.5845 98.9266 84.2337C98.2762 84.9891 97.1234 84.997 96.3008 84.4341C95.9045 84.1629 95.4908 83.9318 95.0596 83.7406C94.0868 83.3094 93.0669 83.0937 92 83.0937C90.9331 83.0937 89.9132 83.3094 88.9404 83.7406C88.5092 83.9318 88.0955 84.1629 87.6992 84.4341ZM80.5636 76.1465C79.8186 76.8255 78.6457 76.8206 77.9827 76.0614C77.422 75.4192 77.4247 74.4539 78.0342 73.8578C79.8032 72.1275 81.7649 70.7678 83.9195 69.7789C86.5031 68.593 89.1967 68 92 68C94.8033 68 97.4969 68.593 100.081 69.7789C102.235 70.7678 104.197 72.1275 105.966 73.8578C106.575 74.4539 106.578 75.4192 106.017 76.0614C105.354 76.8206 104.181 76.8255 103.436 76.1465C102.061 74.8925 100.55 73.8841 98.9038 73.1211C96.7071 72.1029 94.4059 71.5937 92 71.5937C89.5941 71.5937 87.2929 72.1029 85.0962 73.1211C83.4503 73.8841 81.9394 74.8925 80.5636 76.1465ZM84.1334 80.2824C83.3649 80.9266 82.1994 80.9169 81.5452 80.1569C80.9927 79.5152 80.9997 78.5549 81.619 77.9773C82.9012 76.7816 84.3113 75.8277 85.8494 75.1156C87.8159 74.2052 89.8766 73.75 92.0314 73.75C94.1862 73.75 96.2416 74.1992 98.1977 75.0977C99.7273 75.8002 101.132 76.7482 102.412 77.9415C103.032 78.5189 103.039 79.4792 102.486 80.121C101.832 80.8809 100.666 80.8904 99.8953 80.2494C98.9954 79.5016 98.0216 78.8924 96.9738 78.4219C95.3734 77.7031 93.7155 77.3437 92 77.3437C90.2636 77.3437 88.6056 77.7091 87.0262 78.4398C85.9925 78.9181 85.0282 79.5322 84.1334 80.2824ZM92 91C91.3096 91 90.7186 90.7185 90.227 90.1555C89.7354 89.5924 89.4895 88.9156 89.4895 88.125C89.4895 87.3344 89.7354 86.6576 90.227 86.0945C90.7186 85.5315 91.3096 85.25 92 85.25C92.6904 85.25 93.2814 85.5315 93.773 86.0945C94.2646 86.6576 94.5105 87.3344 94.5105 88.125C94.5105 88.9156 94.2646 89.5924 93.773 90.1555C93.2814 90.7185 92.6904 91 92 91Z" fill="#0E8DDA"/>
<path d="M78.2377 113.31C72.1916 113.584 66.9214 115.088 66.3556 117.691C66.0161 118.936 65.9029 130.706 66.0161 143.833L66.3556 167.599L70.4296 167.938C73.8247 168.164 74.6169 167.825 75.1827 166.014C75.7486 163.751 76.5407 163.638 91.8185 163.638C107.096 163.638 107.888 163.751 108.454 166.014C109.02 167.825 109.812 168.164 113.207 167.938L117.281 167.599L117.621 143.833C117.734 130.706 117.621 119.049 117.395 117.691C117.055 116.446 114.792 114.926 113.094 114.134C109.925 112.663 85.82 112.404 78.2377 113.31ZM107.436 117.465C106.757 119.502 76.8802 119.502 76.3144 117.465C75.8617 116.446 79.4831 116.107 91.8185 116.107C104.154 116.107 107.775 116.446 107.436 117.465ZM113.094 135.006L113.434 145.417L109.133 146.323C103.588 147.455 80.049 147.455 74.6169 146.323L70.3165 145.417V135.459C70.3165 130.027 70.656 125.16 71.1087 124.708C71.5613 124.368 81.0675 124.142 92.2712 124.255L112.755 124.594L113.094 135.006ZM80.1621 153.905C80.3885 154.131 80.2753 155.15 79.8226 156.168C79.37 157.413 77.7856 157.979 74.73 157.979C70.7691 157.979 70.3165 157.753 70.3165 155.037C70.3165 152.094 70.5428 152.094 75.0696 152.773C77.6724 153.226 80.049 153.679 80.1621 153.905ZM113.321 155.15C113.321 157.64 112.868 157.979 108.907 157.979C105.965 157.979 104.267 157.413 103.814 156.168C102.796 153.679 102.796 153.679 106.304 153.113C112.981 152.094 113.321 152.208 113.321 155.15Z" fill="#0E8DDA"/>
<path d="M59 128.442C59 130.932 59.679 133.422 60.6975 134.214C63.1872 136.364 63.7531 135.119 62.9609 129.234C61.9424 122.557 59 121.992 59 128.442Z" fill="#0E8DDA"/>
<path d="M120.676 129.234C119.884 135.119 120.45 136.364 122.94 134.214C125.203 132.403 125.316 124.029 123.053 124.029C122.034 124.029 121.242 125.952 120.676 129.234Z" fill="#0E8DDA"/>
<path d="M135.88 167V165.32C138.76 165.32 140.44 164.787 140.92 163.72V123.48C140.44 122.413 138.76 121.88 135.88 121.88V120.2H157.16C163.72 120.2 168.707 121.453 172.12 123.96C175.587 126.467 177.32 129.267 177.32 132.36C177.32 136.36 175.72 139.587 172.52 142.04C169.32 144.493 164.52 145.72 158.12 145.72H151.08V163.72C151.56 164.787 153.24 165.32 156.12 165.32V167H135.88ZM151.08 122.92V143H155.32C159.427 143 162.307 142.2 163.96 140.6C165.667 138.947 166.52 136.227 166.52 132.44C166.52 126.093 162.467 122.92 154.36 122.92H151.08ZM190.257 147.16C190.257 153.453 191.084 158.067 192.737 161C194.444 163.933 197.03 165.4 200.497 165.4C202.897 165.4 204.737 164.147 206.017 161.64C207.297 159.08 207.937 155.72 207.937 151.56C207.937 145.053 207.164 140.413 205.617 137.64C204.124 134.867 201.43 133.48 197.537 133.48C195.244 133.48 193.457 134.813 192.177 137.48C190.897 140.147 190.257 143.373 190.257 147.16ZM199.457 167.8C193.43 167.8 188.63 166.04 185.057 162.52C181.537 159 179.777 154.413 179.777 148.76C179.777 143.693 181.377 139.48 184.577 136.12C187.83 132.707 192.604 131 198.897 131C205.244 131 210.07 132.68 213.377 136.04C216.737 139.4 218.417 143.96 218.417 149.72C218.417 154.84 216.817 159.133 213.617 162.6C210.417 166.067 205.697 167.8 199.457 167.8ZM222.811 167V165.32C225.691 165.32 227.371 164.787 227.851 163.72V136.6C224.971 136.387 223.291 136.28 222.811 136.28V134.44C223.824 134.44 226.277 133.88 230.171 132.76C234.064 131.587 236.624 131 237.851 131V134.36C240.517 132.12 243.451 131 246.651 131C251.771 131 255.744 131.96 258.571 133.88C261.397 135.747 262.811 138.573 262.811 142.36V163.72C263.291 164.787 264.971 165.32 267.851 165.32V167H247.771V165.32C250.651 165.32 252.331 164.787 252.811 163.72V141.8C252.811 139.4 252.251 137.453 251.131 135.96C250.064 134.467 248.411 133.72 246.171 133.72C242.864 133.72 240.091 134.787 237.851 136.92V163.72C238.331 164.787 240.011 165.32 242.891 165.32V167H222.811ZM284.718 120.2V131.8H291.598V134.2H284.718V159.64C284.718 161.293 285.011 162.573 285.598 163.48C286.185 164.333 287.278 164.76 288.878 164.76C289.838 164.76 290.798 164.307 291.758 163.4C292.771 162.44 293.465 161.133 293.838 159.48L295.758 160.44C294.638 165.347 291.438 167.8 286.158 167.8C281.998 167.8 278.958 166.867 277.038 165C275.171 163.08 274.238 159.96 274.238 155.64V134.2H268.638V131.8C271.785 131.8 274.531 130.627 276.878 128.28C279.225 125.88 280.398 123.187 280.398 120.2H284.718ZM309.007 147.16C309.007 153.453 309.834 158.067 311.487 161C313.194 163.933 315.78 165.4 319.247 165.4C321.647 165.4 323.487 164.147 324.767 161.64C326.047 159.08 326.687 155.72 326.687 151.56C326.687 145.053 325.914 140.413 324.367 137.64C322.874 134.867 320.18 133.48 316.287 133.48C313.994 133.48 312.207 134.813 310.927 137.48C309.647 140.147 309.007 143.373 309.007 147.16ZM318.207 167.8C312.18 167.8 307.38 166.04 303.807 162.52C300.287 159 298.527 154.413 298.527 148.76C298.527 143.693 300.127 139.48 303.327 136.12C306.58 132.707 311.354 131 317.647 131C323.994 131 328.82 132.68 332.127 136.04C335.487 139.4 337.167 143.96 337.167 149.72C337.167 154.84 335.567 159.133 332.367 162.6C329.167 166.067 324.447 167.8 318.207 167.8Z" fill="#000000ff"/>
<path d="M383.104 140.928C385.6 140.928 386.848 141.952 386.848 144C386.848 144.896 386.528 145.632 385.888 146.208C385.248 146.72 384.32 146.976 383.104 146.976H367.744V160.512C367.744 161.664 367.456 162.56 366.88 163.2C366.304 163.84 365.472 164.16 364.384 164.16C363.36 164.16 362.56 163.84 361.984 163.2C361.472 162.56 361.216 161.664 361.216 160.512V146.976H345.76C344.544 146.976 343.584 146.72 342.88 146.208C342.24 145.632 341.92 144.896 341.92 144C341.92 141.952 343.2 140.928 345.76 140.928H361.216V127.008C361.216 125.856 361.472 124.96 361.984 124.32C362.56 123.68 363.36 123.36 364.384 123.36C365.472 123.36 366.304 123.68 366.88 124.32C367.456 124.96 367.744 125.856 367.744 127.008V140.928H383.104Z" fill="#0E8DDA"/>
<path d="M100.273 108.143H94.9333C95.8302 107.282 96.676 106.361 97.4659 105.386C100.429 101.722 102 97.8589 102 94.2143C102 91.5053 100.999 88.9072 99.2175 86.9917C97.4359 85.0761 95.0196 84 92.5 84C89.9804 84 87.5641 85.0761 85.7825 86.9917C84.0009 88.9072 83 91.5053 83 94.2143C83 97.8589 84.5664 101.722 87.5341 105.386C88.324 106.361 89.1698 107.282 90.0667 108.143H84.7273C84.4982 108.143 84.2786 108.241 84.1166 108.415C83.9546 108.589 83.8636 108.825 83.8636 109.071C83.8636 109.318 83.9546 109.554 84.1166 109.728C84.2786 109.902 84.4982 110 84.7273 110H100.273C100.502 110 100.721 109.902 100.883 109.728C101.045 109.554 101.136 109.318 101.136 109.071C101.136 108.825 101.045 108.589 100.883 108.415C100.721 108.241 100.502 108.143 100.273 108.143ZM92.5 90.5C93.1832 90.5 93.8511 90.7178 94.4192 91.126C94.9873 91.5341 95.4301 92.1142 95.6916 92.7929C95.9531 93.4716 96.0215 94.2184 95.8882 94.9389C95.7549 95.6594 95.4259 96.3212 94.9427 96.8407C94.4596 97.3601 93.8441 97.7139 93.1739 97.8572C92.5038 98.0005 91.8092 97.927 91.178 97.6458C90.5468 97.3647 90.0072 96.8886 89.6277 96.2778C89.2481 95.667 89.0455 94.9489 89.0455 94.2143C89.0455 93.2292 89.4094 92.2845 90.0573 91.5879C90.7051 90.8913 91.5838 90.5 92.5 90.5Z" fill="#0E8DDA"/>
</svg>
